<?xml version="1.0" standalone="no"?>
<!DOCTYPE svg PUBLIC "-//W3C//DTD SVG 1.1//EN" "http://www.w3.org/Graphics/SVG/1.1/DTD/svg11.dtd" >
<svg xmlns="http://www.w3.org/2000/svg">
<metadata>Generated by IcoMoon</metadata>
<defs>
<font id="icomoon" horiz-adv-x="1024">
<font-face units-per-em="1024" ascent="960" descent="-64" />
<missing-glyph horiz-adv-x="1024" />
<glyph unicode="&#x20;" horiz-adv-x="512" d="" />
<glyph unicode="&#xe900;" glyph-name="icon-associates" d="M981.333 149.333h-256v106.667c-1.6 61.938-34.454 115.866-83.319 146.766l-0.734 0.434c17.28 1.451 30.421 2.133 41.387 2.133 67.541-1.761 131.415-15.323 190.334-38.688l-3.752 1.312c92.629-37.077 112.085-81.365 112.085-111.957v-106.667zM640 149.333h-597.333v106.667c0 30.635 19.456 74.88 112.043 111.915 55.177 22.076 119.065 35.654 185.898 37.404l0.726 0.015c67.559-1.765 131.447-15.342 190.373-38.731l-3.749 1.312c92.629-37.035 112.043-81.323 112.043-111.915v-106.667zM682.667 490.667c-0.127 0-0.277-0.001-0.427-0.001-70.692 0-128 57.308-128 128s57.308 128 128 128c70.692 0 128-57.307 128-127.999v0c0 0 0 0 0-0.001 0-70.542-57.065-127.757-127.55-127.999h-0.023zM341.333 490.667c-0.127 0-0.277-0.001-0.427-0.001-70.692 0-128 57.308-128 128s57.308 128 128 128c70.692 0 128-57.307 128-127.999v0c0 0 0 0 0-0.001 0-70.542-57.065-127.757-127.55-127.999h-0.023z" />
<glyph unicode="&#xe901;" glyph-name="icon-dashboard" d="M896 64h-341.333v426.667h341.333v-426.667zM469.333 64h-341.333v256h341.333v-256zM469.333 405.333h-341.333v426.667h341.333v-426.667zM896 576h-341.333v256h341.333v-256z" />
<glyph unicode="&#xe902;" glyph-name="icon-jobs" d="M896 106.667h-768v42.667h768v-42.667zM896 234.667h-768v85.333h768v-85.333zM896 405.333h-768v128h768v-128zM896 618.667h-768v170.667h768v-170.667z" />
<glyph unicode="&#xe903;" glyph-name="icon-messagehistory" d="M912.597 47.403v0l-160.171 160.171h-440.533c-22.135 0-40.082 17.932-40.107 40.062v80.215h520.619v360.576h80.128c22.132-0.024 40.064-17.971 40.064-40.107 0 0 0 0 0 0v0-600.917zM111.36 247.68v560.896c0.024 22.117 17.947 40.040 40.062 40.064h520.834c22.117-0.024 40.040-17.947 40.064-40.062v-360.578c-0.024-22.117-17.947-40.040-40.062-40.064h-400.685l-160.213-160.171z" />
<glyph unicode="&#xe904;" glyph-name="icon-programs" d="M512 61.013v0l-384 298.667 69.12 53.76 314.453-244.48 314.88 244.907 69.547-54.187-384-298.667zM512 277.333v0l-384 298.667 384 298.667 384-298.667-69.973-54.187-314.027-244.48z" />
<glyph unicode="&#xe905;" glyph-name="icon-questionnaires" d="M768 21.333v0l-64 64-64-64-64 64-64-64-64 64-64-64-64 64-64-64-64 64-64-64v853.333l64-64 64 64 64-64 64 64 64-64 64 64 64-64 64 64 64-64 64 64 64-64 64 64v-853.333l-64 64-64-64zM256 320v-85.333h512v85.333h-512zM256 490.667v-85.333h512v85.333zM256 661.333v0-85.333h512v85.333z" />
<glyph unicode="&#xe906;" glyph-name="icon-referrals" d="M503.467 494.933c-96.853 25.173-128 51.2-128 91.733 0 46.507 43.093 78.933 115.2 78.933 75.947 0 104.107-36.267 106.667-89.6h94.293c-2.082 80.449-59.721 146.852-135.866 162.374l-1.094 0.186v93.44h-128v-92.16c-82.773-17.92-149.333-71.68-149.333-154.027 0-98.56 81.493-147.627 200.533-176.213 106.667-25.6 128-63.147 128-102.827 0-29.44-20.907-76.373-115.2-76.373-87.893 0-122.453 39.253-127.147 89.6h-93.867c5.12-93.44 75.093-145.92 157.013-163.413v-92.587h128v91.733c83.2 15.787 149.333 64 149.333 151.467 0 121.173-103.68 162.56-200.533 187.733z" />
<glyph unicode="&#xe907;" glyph-name="Icons_icon-calendar_1" d="M810.667 64h-597.333c-47.128 0-85.333 38.205-85.333 85.333v0l0.427 597.333c0 0 0 0.001 0 0.001 0 46.978 37.962 85.090 84.884 85.332h42.69v85.333h85.333v-85.333h341.333v85.333h85.333v-85.333h42.667c47.128 0 85.333-38.205 85.333-85.333v0-597.333c0-47.128-38.205-85.333-85.333-85.333v0zM213.333 618.667v-469.333h597.333v469.333zM725.333 234.667h-213.333v213.333h213.333v-213.333z" />
<glyph unicode="&#xe908;" glyph-name="icon-star" d="M512 223.147l263.68-159.147-69.973 299.947 232.96 201.813-306.773 26.027-119.893 282.88-119.893-282.88-306.773-26.027 232.96-201.813-69.973-299.947z" />
<glyph unicode="&#xe909;" glyph-name="icon-user" d="M853.333 106.667h-682.667v85.333c0 34.987 22.187 85.333 128 128 63.082 25.207 136.119 40.692 212.521 42.65l0.813 0.016c77.214-1.975 150.251-17.46 217.619-44.165l-4.286 1.498c105.728-42.368 128-92.928 128-128v-85.333zM512 448c-94.257 0-170.667 76.41-170.667 170.667s76.41 170.667 170.667 170.667c94.257 0 170.667-76.41 170.667-170.667v0c-0.121-94.208-76.459-170.545-170.655-170.667h-0.012z" />
<glyph unicode="&#xe90a;" glyph-name="icon-user_polls" d="M597.498 106.637h-170.727v682.682h170.727v-682.637zM341.408 106.637h-170.727v341.229h170.727v-341.453zM853.588 106.637h-170.727v469.318h170.727v-469.273z" />
<glyph unicode="&#xe90b;" glyph-name="icon-usergroups" d="M981.333 149.333h-85.333v597.333h85.333v-597.333zM810.667 149.333h-85.333v597.333h85.333v-597.333zM597.333 149.333h-512c-23.564 0-42.667 19.103-42.667 42.667v0 512c0 23.564 19.103 42.667 42.667 42.667v0h512c23.564 0 42.667-19.103 42.667-42.667v0-512c0-23.564-19.103-42.667-42.667-42.667v0zM341.333 362.667c-66.987 0-192-32.981-192-96v-32h384v32c0 63.019-124.971 96-192 96zM341.333 629.333c-53.019 0-96-42.981-96-96s42.981-96 96-96c53.019 0 96 42.981 96 96v0c-0.073 52.99-43.010 95.927-95.993 96h-0.007z" />
<glyph unicode="&#xe90c;" glyph-name="Chat" horiz-adv-x="1304" d="M769.186 264.981c74.655 30.023 137.322 76.316 185.873 134.754l0.612 0.758c42.458 50.145 68.271 115.561 68.271 187.006s-25.813 136.862-68.622 187.431l0.351-0.425c-49.099 59.273-111.786 105.584-183.391 134.412l-3.094 1.1c-73.951 31.629-159.999 50.018-250.342 50.018-2.36 0-4.718-0.013-7.072-0.038l0.359 0.003c-2.047 0.023-4.465 0.036-6.887 0.036-90.297 0-176.304-18.37-254.486-51.577l4.265 1.609c-74.655-30.023-137.322-76.316-185.873-134.754l-0.612-0.758c-42.398-50.215-68.26-115.59-68.538-186.999v-0.060c0.251-61.086 19.57-117.61 52.307-163.985l-0.604 0.902c37.146-53.077 84.632-96.334 139.813-127.585l2.109-1.099c-4.847-11.727-9.955-22.412-15.011-32.106-5.71-10.701-11.707-19.877-18.411-28.473l0.325 0.433c-7.14-8.913-12.509-16.053-16.314-21.161-6.252-7.837-12.424-14.818-18.923-21.478l0.056 0.057c-8.652-9.173-14.281-15.271-16.835-18.086 0 0.521-1.042-0.521-2.814-3.336s-3.075-3.805-3.336-3.544-1.251-1.042-2.814-3.544c-0.854-1.164-1.7-2.492-2.459-3.876l-1.867-3.734c-0.685-1.25-1.211-2.7-1.497-4.235l-0.014-0.091c-0.064-0.726-0.101-1.57-0.101-2.424s0.037-1.698 0.108-2.532l-0.008 0.109c0-0.027 0-0.059 0-0.091 0-1.702 0.286-3.338 0.813-4.861l-0.031 0.104c0.847-6.165 3.915-11.491 8.355-15.242l0.036-0.029c3.986-3.536 9.232-5.73 14.989-5.837h2.003c24.739 3.33 45.944 7.434 66.726 12.608l-4.182-0.881c77.038 19.916 144.551 51.899 204.173 94.261l-1.896-1.279c38.417-7.279 82.715-11.555 127.971-11.778l0.192-0.001c1.087-0.006 2.372-0.010 3.658-0.010 91.166 0 178.014 18.493 256.995 51.933l-4.327-1.627zM1251.973 237.983c32.349 45.492 51.716 102.177 51.716 163.386 0 62.908-20.457 121.039-55.083 168.101l0.552-0.786c-38.928 53.762-88.546 97.351-145.988 128.285l-2.293 1.129c10.671-33.155 16.823-71.298 16.823-110.877 0-67.816-18.059-131.414-49.63-186.247l0.962 1.813c-35.867-61.694-82.652-113.102-138.185-153.128l-1.444-0.99c-54.966-39.863-118.833-71.887-187.589-92.642l-4.525-1.174c-66.188-20.707-142.293-32.635-221.183-32.635-1.233 0-2.465 0.003-3.696 0.009l0.191-0.001c-14.541 0-35.911 1.042-63.951 2.814 93.207-60.344 207.141-96.216 329.454-96.216 4.91 0 9.807 0.058 14.689 0.173l-0.725-0.013c45.36 0.083 89.67 4.347 132.633 12.426l-4.47-0.699c57.699-41.192 125.229-73.189 198.047-92.052l4.23-0.93c17.564-4.326 38.204-8.131 62.544-11.727 0.51-0.042 1.103-0.065 1.702-0.065 5.489 0 10.512 1.997 14.382 5.303l-0.031-0.025c4.827 3.984 8.225 9.545 9.408 15.886l0.026 0.167c0 2.814 0 4.587 0.782 4.847s0.521 1.772 0 4.847-1.511 4.326-1.511 4.326l-1.772 3.544c-0.825 1.56-1.672 2.89-2.612 4.146l0.058-0.081c-1.251 1.772-2.293 2.814-2.814 3.544s-1.772 2.033-3.336 3.544c-0.964 1.016-1.886 2.103-2.745 3.24l-0.069 0.095c-2.554 2.814-7.922 8.913-16.835 18.086-6.443 6.603-12.615 13.584-18.433 20.86l-0.434 0.561c-3.805 5.212-9.434 12.248-16.314 21.161-6.511 8.176-12.514 17.36-17.627 27.084l-0.458 0.957c-5.212 9.694-9.955 20.379-15.011 32.106 56.584 32.429 103.563 75.348 139.661 126.497l0.906 1.353z" />
<glyph unicode="&#xe90d;" glyph-name="descend-icon2" horiz-adv-x="1044" d="M456.798 959.823h-195.833v-641.776h-261.052l359.013-381.959 358.925 381.959h-261.052zM783.157 446.456h-195.833v128.408h195.833v-128.408zM913.684 639.024h-326.36v128.408h326.36v-128.408zM1044.21 831.68h-456.886v128.408h456.886v-128.408z" />
<glyph unicode="&#xe90e;" glyph-name="ascend-icon" horiz-adv-x="1027" d="M577.766-64h192.56v642.010h256.804l-353.040 381.99-353.127-381.99h256.804zM256.804 449.608h192.56v-128.402h-192.56v128.402zM128.402 257.049h320.962v-128.402h-320.962v128.402zM0 64.402h449.364v-128.402h-449.364v128.402z" />
<glyph unicode="&#xe90f;" glyph-name="nojobs-icon" horiz-adv-x="1129" d="M97.368 389.678c-0.462 0.008-1.008 0.013-1.554 0.013-26.402 0-50.264-10.879-67.346-28.399l-0.019-0.020c-17.554-17.679-28.404-42.036-28.404-68.927s10.849-51.248 28.409-68.932l-0.006 0.006c17.006-17.53 40.782-28.41 67.1-28.41 0.64 0 1.278 0.006 1.915 0.019l-0.095-0.002c0.462-0.008 1.008-0.013 1.554-0.013 26.402 0 50.264 10.879 67.346 28.399l0.019 0.020c17.554 17.679 28.404 42.036 28.404 68.927s-10.849 51.248-28.409 68.932l0.006-0.006c-17.1 17.531-40.956 28.405-67.352 28.405-0.551 0-1.101-0.005-1.651-0.014l0.083 0.001zM97.368 648.324c-0.462 0.008-1.008 0.013-1.554 0.013-26.402 0-50.264-10.879-67.346-28.399l-0.019-0.020c-17.554-17.679-28.404-42.036-28.404-68.927s10.849-51.248 28.409-68.932l-0.006 0.006c17.006-17.53 40.782-28.41 67.1-28.41 0.64 0 1.278 0.006 1.915 0.019l-0.095-0.002c0.462-0.008 1.008-0.013 1.554-0.013 26.402 0 50.264 10.879 67.346 28.399l0.019 0.020c17.554 17.679 28.404 42.036 28.404 68.927s-10.849 51.248-28.409 68.932l0.006-0.006c-17.1 17.531-40.956 28.405-67.352 28.405-0.551 0-1.101-0.005-1.651-0.014l0.083 0.001zM97.368 130.651c-0.462 0.008-1.008 0.013-1.554 0.013-26.402 0-50.264-10.879-67.346-28.399l-0.019-0.020c-17.554-17.679-28.404-42.036-28.404-68.927s10.849-51.248 28.409-68.932l-0.006 0.006c17.006-17.53 40.782-28.41 67.1-28.41 0.64 0 1.278 0.006 1.915 0.019l-0.095-0.002c0.462-0.008 1.008-0.013 1.554-0.013 26.402 0 50.264 10.879 67.346 28.399l0.019 0.020c17.554 17.679 28.404 42.036 28.404 68.927s-10.849 51.248-28.409 68.932l0.006-0.006c-17.1 17.531-40.956 28.405-67.352 28.405-0.551 0-1.101-0.005-1.651-0.014l0.083 0.001zM889.943 357.109h-614.631c-0.151 0.006-0.327 0.009-0.505 0.009-4.322 0-8.2-1.903-10.84-4.917l-0.014-0.017c-3.017-2.859-4.901-6.887-4.925-11.355v-96.949c-0.006-0.151-0.009-0.327-0.009-0.505 0-4.322 1.903-8.2 4.917-10.84l0.017-0.014c2.859-3.017 6.887-4.901 11.355-4.925h614.635c0.151-0.006 0.327-0.009 0.505-0.009 4.322 0 8.2 1.903 10.84 4.917l0.014 0.017c3.017 2.859 4.901 6.887 4.925 11.355v96.949c-0.295 8.873-7.412 15.99-16.257 16.284l-0.028 0.001zM889.943 98.463h-614.631c-0.151 0.006-0.327 0.009-0.505 0.009-4.322 0-8.2-1.903-10.84-4.917l-0.014-0.017c-3.017-2.859-4.901-6.887-4.925-11.355v-96.949c-0.006-0.152-0.009-0.331-0.009-0.511 0-4.32 1.903-8.196 4.917-10.834l0.017-0.014c2.859-3.017 6.887-4.901 11.355-4.925h614.635c0.152-0.006 0.331-0.009 0.511-0.009 4.32 0 8.196 1.903 10.834 4.917l0.014 0.017c3.018 2.858 4.903 6.887 4.925 11.356v96.949c-0.295 8.873-7.412 15.99-16.257 16.284l-0.028 0.001zM875.563 960h-0.381c-139.713 0-252.973-113.26-252.973-252.973s113.26-252.973 252.973-252.973v0h0.762c139.631 0.108 252.783 113.327 252.783 252.973 0 139.713-113.26 252.973-252.973 252.973-0.067 0-0.134 0-0.201 0h0.010zM875.563 526.783h-0.381c-22.796 0-41.276 18.48-41.276 41.276s18.48 41.276 41.276 41.276h0.762c22.773-0.056 41.219-18.502 41.276-41.27v-0.005c-0.379-22.775-18.849-41.112-41.641-41.275h-0.016zM934.633 842.227c-2.653-41.657-21.59-164.354-21.59-164.354-0.096-20.728-16.921-37.494-37.663-37.494-0.075 0-0.149 0-0.224 0.001h-0.751c-0.046 0-0.101 0-0.156 0-20.621 0-37.338 16.717-37.338 37.338 0 0.055 0 0.109 0 0.164v-0.008s-18.937 122.768-21.59 163.973c-0.023 0.6-0.035 1.304-0.035 2.011 0 31.54 25.568 57.108 57.108 57.108 0.707 0 1.411-0.013 2.112-0.038l-0.101 0.003h0.762c0.767 0.037 1.666 0.058 2.57 0.058 31.439 0 56.925-25.486 56.925-56.925 0-0.646-0.011-1.289-0.032-1.929l0.002 0.093zM571.451 616.136h-296.14c-0.151 0.006-0.327 0.009-0.505 0.009-4.322 0-8.2-1.903-10.84-4.917l-0.014-0.017c-3.017-2.859-4.901-6.887-4.925-11.355v-96.949c-0.006-0.151-0.009-0.327-0.009-0.505 0-4.322 1.903-8.2 4.917-10.84l0.017-0.014c2.859-3.017 6.887-4.901 11.355-4.925h371.131c-33.994 35.412-59.855 78.898-74.41 127.281l-0.577 2.233z" />
<glyph unicode="&#xe910;" glyph-name="mic" d="M537.6 116.48v-129.28h179.2c14.080 0 25.6-11.52 25.6-25.6s-11.52-25.6-25.6-25.6h-409.6c-14.080 0-25.6 11.52-25.6 25.6s11.52 25.6 25.6 25.6h179.2v129.28c-171.52 12.8-307.2 157.44-307.2 331.52 0 14.080 11.52 25.6 25.6 25.6s25.6-11.52 25.6-25.6c0-154.88 126.72-281.6 281.6-281.6s281.6 126.72 281.6 281.6c0 14.080 11.52 25.6 25.6 25.6s25.6-11.52 25.6-25.6c0-175.36-135.68-318.72-307.2-331.52zM704 768v-320c0-106.24-85.76-192-192-192s-192 85.76-192 192v320c0 106.24 85.76 192 192 192s192-85.76 192-192zM652.8 768c0 78.080-62.72 140.8-140.8 140.8s-140.8-62.72-140.8-140.8v-320c0-78.080 62.72-140.8 140.8-140.8s140.8 62.72 140.8 140.8v320z" />
<glyph unicode="&#xe911;" glyph-name="filter" d="M960.318 868.38h-896.636c-35.114 0-63.682-28.566-63.682-63.68v-74.944c0-35.114 28.568-63.682 63.682-63.682h29.814l329.114-329.114v-288.112c0-8.586 5.172-16.326 13.104-19.612 2.626-1.086 5.384-1.616 8.118-1.616 5.526 0 10.956 2.156 15.016 6.218l137.118 137.12c3.98 3.982 6.218 9.38 6.218 15.010v150.996l329.108 329.11h29.028c35.114 0 63.682 28.568 63.682 63.682v74.944c-0.002 35.114-28.57 63.68-63.684 63.68zM565.936 360.758c-4.192-4.192-6.256-9.7-6.208-15.194v-150.808l-94.664-94.664v245.596c0.014 5.454-2.054 10.91-6.214 15.072l-305.314 305.314h717.714l-305.314-305.316zM981.546 729.756c0-11.704-9.522-21.228-21.228-21.228h-896.636c-11.704 0-21.228 9.522-21.228 21.228v74.944c0 11.704 9.522 21.228 21.228 21.228h896.638c11.704 0 21.228-9.522 21.228-21.228v-74.944z" />
<glyph unicode="&#xe913;" glyph-name="descend-icon" horiz-adv-x="1006" d="M658.61 82.463h-146.286c-0.163 0.005-0.354 0.008-0.546 0.008-9.777 0-17.703-7.926-17.703-17.703 0-0.252 0.005-0.503 0.016-0.752l-0.001 0.036v-109.641c-0.009-0.214-0.015-0.465-0.015-0.717 0-9.777 7.926-17.703 17.703-17.703 0.192 0 0.383 0.003 0.573 0.009l-0.028-0.001h146.286c0.216-0.009 0.469-0.015 0.723-0.015 9.777 0 17.703 7.926 17.703 17.703 0 0.254-0.005 0.507-0.016 0.759l0.001-0.036v109.641c0.015 0.266 0.023 0.578 0.023 0.892 0 4.834-1.997 9.201-5.212 12.322l-0.004 0.004c-3.206 3.216-7.64 5.206-12.539 5.206-0.239 0-0.477-0.005-0.714-0.014l0.034 0.001zM384.45 155.517h-109.7v786.308c0.008 0.203 0.013 0.441 0.013 0.68 0 4.899-1.99 9.333-5.205 12.538v0c-3.323 3.111-7.804 5.022-12.731 5.022-0.171 0-0.342-0.002-0.512-0.007l0.025 0.001h-109.641c-0.216 0.009-0.469 0.015-0.723 0.015-9.777 0-17.703-7.926-17.703-17.703 0-0.254 0.005-0.507 0.016-0.759l-0.001 0.036v-786.131h-109.463c-0.049 0-0.106 0.001-0.164 0.001-10.168 0-18.411-8.243-18.411-18.411 0-5.066 2.046-9.655 5.358-12.984l182.93-182.93c3.505-3.093 8.091-5.034 13.127-5.192l0.032-0.001c0.014 0 0.031 0 0.048 0 5.096 0 9.731 1.976 13.181 5.203l-0.011-0.010 182.223 182.341c3.38 3.581 5.565 8.323 5.898 13.568l0.003 0.063c0.008 0.203 0.013 0.441 0.013 0.68 0 4.899-1.99 9.333-5.205 12.538v0c-3.279 3.184-7.759 5.147-12.697 5.147-0.246 0-0.49-0.005-0.733-0.014l0.035 0.001zM768.251 374.857h-255.926c-0.216 0.009-0.469 0.015-0.723 0.015-9.777 0-17.703-7.926-17.703-17.703 0-0.254 0.005-0.507 0.016-0.759l-0.001 0.036v-109.641c-0.009-0.216-0.015-0.469-0.015-0.723 0-9.777 7.926-17.703 17.703-17.703 0.254 0 0.507 0.005 0.759 0.016l-0.036-0.001h255.926c0.216-0.009 0.469-0.015 0.723-0.015 9.777 0 17.703 7.926 17.703 17.703 0 0.254-0.005 0.507-0.016 0.759l0.001-0.036v109.641c0.008 0.203 0.013 0.441 0.013 0.68 0 4.899-1.99 9.333-5.205 12.538v0c-3.134 3.218-7.509 5.215-12.35 5.215-0.305 0-0.609-0.008-0.911-0.024l0.042 0.002zM1000.809 954.807c-3.206 3.216-7.64 5.206-12.539 5.206-0.239 0-0.477-0.005-0.714-0.014l0.034 0.001h-475.266c-0.216 0.009-0.469 0.015-0.723 0.015-9.777 0-17.703-7.926-17.703-17.703 0-0.254 0.005-0.507 0.016-0.759l-0.001 0.036v-109.641c-0.009-0.216-0.015-0.469-0.015-0.723 0-9.777 7.926-17.703 17.703-17.703 0.254 0 0.507 0.005 0.759 0.016l-0.036-0.001h475.266c0.216-0.009 0.469-0.015 0.723-0.015 9.777 0 17.703 7.926 17.703 17.703 0 0.254-0.005 0.507-0.016 0.759l0.001-0.036v109.877c0.010 0.213 0.015 0.463 0.015 0.714 0 4.814-1.995 9.163-5.203 12.263l-0.005 0.005zM878.127 667.429h-365.862c-0.198 0.008-0.43 0.012-0.664 0.012-9.777 0-17.703-7.926-17.703-17.703 0-0.253 0.005-0.506 0.016-0.756l-0.001 0.036v-109.641c-0.009-0.216-0.015-0.469-0.015-0.723 0-9.777 7.926-17.703 17.703-17.703 0.254 0 0.507 0.005 0.759 0.016l-0.036-0.001h365.626c0.216-0.009 0.469-0.015 0.723-0.015 9.777 0 17.703 7.926 17.703 17.703 0 0.254-0.005 0.507-0.016 0.759l0.001-0.036v109.641c0.008 0.203 0.013 0.441 0.013 0.68 0 4.899-1.99 9.333-5.205 12.538v0c-3.106 3.214-7.455 5.21-12.27 5.21-0.271 0-0.541-0.006-0.809-0.019l0.038 0.001z" />
<glyph unicode="&#xe914;" glyph-name="filter-icon" horiz-adv-x="1025" d="M1021.152 931.714c2.861-5.525 4.539-12.062 4.539-18.99 0-12.757-5.688-24.186-14.667-31.888l-0.056-0.047-358.55-358.646v-539.61c0.034-0.64 0.053-1.39 0.053-2.143 0-18.605-11.696-34.479-28.136-40.67l-0.299-0.099c-5.381-2.217-11.624-3.539-18.166-3.62h-0.032c-0.284-0.007-0.619-0.010-0.954-0.010-12.53 0-23.821 5.305-31.75 13.791l-0.023 0.025-186.177 186.177c-8.515 8.16-13.807 19.625-13.807 32.326 0 0.141 0.001 0.282 0.002 0.422v-0.021 353.481l-358.55 358.501c-9.055 7.75-14.758 19.191-14.758 31.964 0 6.955 1.691 13.515 4.683 19.291l-0.11-0.234c6.29 16.74 22.163 28.436 40.769 28.436 0.754 0 1.503-0.019 2.248-0.057l-0.104 0.004h930.935c0.64 0.034 1.39 0.053 2.143 0.053 18.605 0 34.479-11.696 40.67-28.136l0.099-0.299z" />
<glyph unicode="&#xe915;" glyph-name="icon-call" d="M900.608 204.288l-125.724 125.724c-11.748 11.254-27.717 18.182-45.305 18.182-18.412 0-35.050-7.592-46.955-19.817l-63.388-63.331c-3.982 2.105-8.192 4.437-12.402 6.997-58.272 30.519-108.334 67.184-152.165 110.179l0.101-0.099c-43.060 43.841-79.812 94.081-108.656 149.117l-1.651 3.459-6.77 12.174 42.553 42.268 20.821 20.821c12.31 11.894 19.952 28.549 19.952 46.99 0 17.649-7.001 33.663-18.376 45.416l0.017-0.018-125.724 125.611c-11.729 11.325-27.72 18.304-45.34 18.304-18.441 0-35.097-7.643-46.973-19.935l-0.018-0.019-35.499-35.726 0.91-0.967c-11.522-14.746-21.338-31.638-28.682-49.795l-0.502-1.405c-5.991-15.102-10.58-32.695-12.964-50.981l-0.12-1.129c-16.384-137.557 46.478-263.566 217.088-433.892 235.52-235.748 425.529-217.998 433.664-217.088 19.424 2.31 37.113 6.912 53.749 13.584l-1.411-0.5c19.568 7.679 36.473 17.431 51.648 29.294l-0.448-0.337 0.683-0.683 35.726 35.044c12.509 11.938 20.286 28.74 20.286 47.359 0 17.544-6.906 33.476-18.148 45.224l0.023-0.024z" />
<glyph unicode="&#xe916;" glyph-name="icon-copy" d="M734.413 89.6h-342.682c-34.525 0.517-62.314 28.626-62.314 63.225 0 0.236 0.001 0.472 0.004 0.708v-0.036 448.051c-0.003 0.215-0.004 0.469-0.004 0.723 0 34.599 27.789 62.708 62.266 63.225l0.049 0.001h342.682c34.503-0.545 62.264-28.643 62.264-63.225 0-0.273-0.002-0.545-0.005-0.817v0.041-448c0.002-0.2 0.004-0.436 0.004-0.673 0-34.581-27.76-62.679-62.212-63.224l-0.051-0.001zM391.731 601.6v-448.102h342.682v448.051zM267.11 281.498h-62.31v448c-0.003 0.23-0.005 0.502-0.005 0.775 0 34.6 27.79 62.709 62.267 63.225l0.049 0.001h373.76v-64h-373.76v-448z" />
<glyph unicode="&#xe917;" glyph-name="mute-mic" d="M810.667 490.667h-72.533c0-31.573-6.827-61.013-18.347-87.467l52.48-52.48c23.893 41.813 38.4 89.173 38.4 139.947zM639.147 483.413c0 2.56 0.853 4.693 0.853 7.253v256c0 70.827-57.173 128-128 128s-128-57.173-128-128v-7.68l255.147-255.573zM182.187 832l-54.187-54.187 256.427-256.427v-30.72c0-70.827 56.747-128 127.573-128 9.387 0 18.773 1.28 27.733 3.413l70.827-70.827c-30.293-14.080-64-22.187-98.56-22.187-117.76 0-226.133 89.6-226.133 217.6h-72.533c0-145.493 116.053-265.813 256-286.72v-139.947h85.333v139.947c38.827 5.547 75.52 19.2 108.373 38.4l178.773-178.347 54.187 54.187-713.813 713.813z" />
<glyph unicode="&#xe918;" glyph-name="icon-email" d="M917.902 219.364c-0.151-18.487-5.113-35.783-13.693-50.739l0.268 0.506-263.68 295.026 260.949 228.068c10.117-15.686 16.137-34.843 16.156-55.405v-417.456zM500.565 410.681l362.78 317.326c-14.33 8.111-31.446 12.945-49.68 13.084h-625.819c-18.315-0.071-35.483-4.915-50.345-13.351l0.51 0.266zM601.714 429.796l-83.911-73.5c-4.574-3.881-10.545-6.242-17.067-6.242s-12.493 2.36-17.105 6.273l0.038-0.032-84.252 73.444-266.752-298.61c15.607-9.923 34.621-15.815 55.012-15.815h625.778c20.429 0.044 39.46 5.995 55.485 16.235l-0.417-0.249zM99.442 692.224c-10.034-15.752-16.037-34.925-16.156-55.491v-417.369c0.151-18.487 5.113-35.783 13.693-50.739l-0.268 0.506 263.509 295.026z" />
<glyph unicode="&#xe919;" glyph-name="icon-phone" d="M748.373 875.861c-15.921 16.8-38.393 27.255-63.308 27.255-0.323 0-0.646-0.002-0.969-0.005h-365.519c-0.223 0.002-0.487 0.003-0.751 0.003-24.914 0-47.386-10.454-63.269-27.214l-0.037-0.039c-16.631-15.926-26.968-38.31-26.968-63.108 0-0.234 0.001-0.467 0.003-0.7v0.036-730.965c-0.003-0.267-0.005-0.583-0.005-0.899 0-24.868 10.334-47.321 26.942-63.302l0.028-0.027c16.074-16.805 38.677-27.251 63.72-27.251 0.179 0 0.357 0.001 0.535 0.002h365.37c0.273-0.003 0.596-0.005 0.92-0.005 24.914 0 47.387 10.454 63.271 27.215l0.037 0.039c16.805 16.074 27.251 38.677 27.251 63.72 0 0.179-0.001 0.357-0.002 0.535v-0.027 730.965c0.002 0.212 0.003 0.462 0.003 0.712 0 24.837-10.457 47.231-27.209 63.020l-0.043 0.040zM444.473 812.089h114.233c0.383 0.051 0.825 0.080 1.275 0.080 5.624 0 10.183-4.559 10.183-10.183 0-0.449-0.029-0.892-0.086-1.326l0.005 0.051c0.051-0.383 0.080-0.825 0.080-1.275 0-5.624-4.559-10.183-10.183-10.183-0.449 0-0.892 0.029-1.326 0.086l0.051-0.005h-114.233c-0.383-0.051-0.825-0.080-1.275-0.080-5.624 0-10.183 4.559-10.183 10.183 0 0.449 0.029 0.892 0.086 1.326l-0.005-0.051c-0.051 0.383-0.080 0.825-0.080 1.275 0 5.624 4.559 10.183 10.183 10.183 0.449 0 0.892-0.029 1.326-0.086l-0.051 0.005zM541.924 40.903c-10.003-10.323-23.995-16.73-39.483-16.73-0.259 0-0.518 0.002-0.777 0.005h0.039c-0.319-0.007-0.694-0.011-1.071-0.011-15.385 0-29.271 6.415-39.131 16.716l-0.019 0.020c-10.323 10.003-16.73 23.995-16.73 39.483 0 0.259 0.002 0.518 0.005 0.777v-0.039c-0.007 0.319-0.011 0.694-0.011 1.071 0 15.385 6.415 29.271 16.716 39.131l0.020 0.019c10.003 10.323 23.995 16.73 39.483 16.73 0.259 0 0.518-0.002 0.777-0.005h-0.039c0.319 0.007 0.694 0.011 1.071 0.011 15.385 0 29.271-6.415 39.131-16.716l0.019-0.020c10.323-10.003 16.73-23.995 16.73-39.483 0-0.259-0.002-0.518-0.005-0.777v0.039c0.001-0.148 0.002-0.324 0.002-0.5 0-15.562-6.402-29.629-16.717-39.711l-0.011-0.010zM706.901 195.356c-0.158-12.503-10.252-22.597-22.741-22.755h-365.583c-0.067-0.001-0.145-0.001-0.224-0.001-6.2 0-11.794 2.597-15.753 6.762l-0.009 0.009c-4.176 4.031-6.77 9.678-6.77 15.931 0 0.019 0 0.038 0 0.058v-0.003 502.329c0.158 12.503 10.252 22.597 22.741 22.755h365.583c12.503-0.158 22.597-10.252 22.755-22.741v-502.344z" />
<glyph unicode="&#xe91a;" glyph-name="icon-edit" d="M292.25 89.6h-138.65v138.65l408.934 408.883 138.65-138.65-408.934-408.883zM740.762 538.061v0l-138.65 138.65 67.635 67.686c6.67 6.668 15.884 10.791 26.061 10.791s19.39-4.124 26.061-10.791l86.528-86.528c6.68-6.665 10.812-15.88 10.812-26.061s-4.133-19.396-10.812-26.060l-67.585-67.636z" />
<glyph unicode="&#xe91b;" glyph-name="icon-sms" d="M488.107 833.365c-271.929 0-488.107-174.308-488.107-383.488 3.307-105.125 54.177-197.725 131.702-257.405l0.793-0.586c0.456-6.121 0.716-13.258 0.716-20.457 0-68.96-23.849-132.351-63.748-182.373l0.455 0.59c93.995 10.823 177.6 48.552 244.741 105.184l-0.687-0.565c47.002-17.835 101.349-28.162 158.107-28.162 5.697 0 11.37 0.104 17.016 0.31l-0.816-0.024c271.929 0 488.107 174.308 488.107 383.488s-216.348 383.488-488.277 383.488z" />
<glyph unicode="&#xe91c;" glyph-name="icon-share" d="M279.962 34.406h-11.059c-120.001 0.175-217.227 97.437-217.344 217.435v371.774c0.175 119.965 97.379 217.169 217.327 217.344h371.78c0.035 0 0.078 0 0.12 0 14.151 0 27.988-1.342 41.392-3.905l-1.371 0.218c-51.217-43.291-83.52-107.575-83.52-179.405 0-129.48 104.965-234.445 234.445-234.445 0.004 0 0.009 0 0.013 0h-0.001c0.057 0 0.124 0 0.191 0 9.186 0 18.251 0.521 27.165 1.535l-1.091-0.101v-173.005c-0.145-119.987-97.36-217.22-217.327-217.395h-259.908v241.050h66.56s6.298 37.734 9.318 80.333h-75.878v56.32c2.098 10.497 10.875 18.42 21.632 19.196l0.077 0.004h53.914v85.146h-73.574c-2.305 0.177-4.991 0.278-7.702 0.278-27.244 0-52.11-10.181-71.001-26.947l0.111 0.096c-15.086-16.078-24.352-37.772-24.352-61.631 0-1.734 0.049-3.456 0.146-5.166l-0.011 0.237v-67.533h-47.309v-80.333h47.258v-241.050zM1024.154 696.883l-146.33 163.84v-109.056c-111.814-6.666-199.968-98.973-199.968-211.87 0-3.889 0.105-7.753 0.311-11.59l-0.023 0.535c31.117 68.497 98.932 115.271 177.671 115.271 7.755 0 15.404-0.454 22.922-1.336l-0.913 0.087v-109.722z" />
<glyph unicode="&#xe91d;" glyph-name="icon-unpulish" d="M534.579 593.101c-116.447-0.061-222.764-43.384-303.761-114.765l0.504 0.435-158.259 158.259v-395.571h395.571l-159.078 159.078c60.571 51.387 139.635 82.634 225.998 82.634 154.677 0 285.944-100.233 332.39-239.291l0.716-2.473 104.192 34.304c-62.593 185.707-235.050 317.113-438.239 317.389h-0.033z" />
<glyph unicode="&#xe91e;" glyph-name="reject_user-icon" horiz-adv-x="1017" d="M226.755 960c-124.976-0.637-226.118-101.779-226.755-226.694v-416.961c-0.029-1.349-0.045-2.939-0.045-4.532 0-125.81 101.211-227.981 226.653-229.533l0.147-0.001h307.178c41.767-85.548 127.174-143.945 226.451-146.272l0.304-0.006c140.669 1.766 254.234 115.331 255.998 255.832l0.002 0.168c0.025 1.295 0.039 2.823 0.039 4.353 0 99.099-59.521 184.297-144.764 221.793l-1.553 0.609v314.49c0.133 2.844 0.209 6.177 0.209 9.529 0 119.978-97.262 217.24-217.24 217.24-0.848 0-1.696-0.005-2.542-0.015l0.129 0.001zM226.755 886.834h416.9c86.285-0.107 156.688-67.956 160.886-153.213l0.015-0.376v-285.245h-36.556c-2.651 0.11-5.763 0.172-8.889 0.172-55.045 0-105.565-19.375-145.113-51.677l0.412 0.326c-47.947 29.905-105.649 48.612-167.521 51.156l-0.691 0.023c97.434 2.271 175.552 81.794 175.552 179.563 0 1.131-0.010 2.26-0.031 3.387l0.002-0.169c0 100.947-81.834 182.78-182.78 182.78s-182.78-81.834-182.78-182.78v0c3.41-97.057 79.206-175.369 174.876-182.74l0.647-0.040c-1.065 0.012-2.323 0.018-3.583 0.018-146.59 0-272.24-89.659-325.102-217.13l-0.857-2.332c-18.217 19.572-29.397 45.906-29.397 74.851 0 2.036 0.055 4.059 0.165 6.067l-0.012-0.28v424.050c3.174 83.611 70.222 150.565 153.576 153.581l0.282 0.008zM768 374.834c100.947 0 182.78-81.834 182.78-182.78s-81.834-182.78-182.78-182.78c-100.947 0-182.78 81.834-182.78 182.78v0c-0.005 0.514-0.008 1.121-0.008 1.729 0 99.997 81.063 181.060 181.060 181.060 0.608 0 1.215-0.003 1.821-0.009l-0.093 0.001zM716.822 294.196l-51.178-51.178 51.178-51.178-51.178-51.178 51.178-51.178 51.178 51.178 51.178-51.178 51.178 51.178-51.178 51.178 51.178 51.178-51.178 51.178-51.178-51.178z" />
<glyph unicode="&#xe91f;" glyph-name="search-icon" d="M967.572 53.598l-183.242 183.242c68.312 76.329 110.072 177.668 110.072 288.759 0 239.58-194.218 433.799-433.799 433.799s-433.799-194.218-433.799-433.799c0-239.58 194.218-433.799 433.799-433.799 85.438 0 165.107 24.699 232.256 67.348l-1.767-1.048 190.626-190.626c10.866-10.874 25.882-17.6 42.469-17.6s31.603 6.726 42.469 17.6v0c11.576 10.925 18.783 26.372 18.783 43.503 0 16.683-6.835 31.77-17.859 42.613l-0.008 0.008zM148.157 525.932c0 172.638 139.951 312.589 312.589 312.589s312.589-139.951 312.589-312.589c0-172.638-139.951-312.589-312.589-312.589v0c-172.491 0.367-312.222 140.099-312.589 312.554v0.035z" />
<glyph unicode="&#xe920;" glyph-name="send_message_icon" d="M136.3 960h655.953c60.732-1.182 109.511-50.692 109.511-111.596 0-2.092-0.058-4.171-0.171-6.235l0.013 0.287v-391.707c0-11.749-3.665-23.498-3.665-35.247l-76.531 70.494c-12.613 12.997-30.244 21.062-49.759 21.062-9.664 0-18.866-1.978-27.223-5.551l0.452 0.172-134.737 148.857 255.192 211.537-400.977-231.155-400.977 231.155 255.192-211.537-211.429-231.155 255.192 195.692 102.023-70.063 102.077 70.063 164.056-125.359c-15.69-13.408-25.572-33.217-25.572-55.333 0-1.2 0.029-2.394 0.087-3.579l-0.006 0.167v-39.181c-51.070-9.317-96.427-28.516-135.921-55.633l1.184 0.768h-433.96c-60.737 1.175-109.523 50.689-109.523 111.596 0 2.168 0.062 4.322 0.184 6.46l-0.013-0.296v388.042c-0.092 1.696-0.145 3.681-0.145 5.679 0 60.899 48.771 110.406 109.386 111.594l0.111 0.002zM756.035 431.185v-94.208c-116.628 0-273.408-62.68-273.408-376.077 51.038 199.788 120.293 215.579 273.408 215.579v-97.927c0-7.815 3.665-15.683 10.779-15.683h7.276c0.437-0.053 0.943-0.083 1.456-0.083 3.67 0 6.979 1.541 9.317 4.011l0.006 0.006 182.811 176.344c3.385 3.566 5.467 8.398 5.467 13.716s-2.082 10.15-5.475 13.725l0.008-0.009-182.272 176.29c-2.816 3.322-6.992 5.417-11.657 5.417-2.384 0-4.64-0.547-6.65-1.522l0.091 0.040c-6.707-3.742-11.169-10.795-11.169-18.889 0-0.256 0.004-0.511 0.013-0.765l-0.001 0.037z" />
<glyph unicode="&#xe921;" glyph-name="ascending-icon" horiz-adv-x="1006" d="M658.622 813.495h-146.269c-0.215-0.009-0.468-0.015-0.722-0.015-9.764 0-17.68 7.915-17.68 17.68 0 0.254 0.005 0.507 0.016 0.758l-0.001-0.036v109.672c-0.009 0.215-0.015 0.468-0.015 0.722 0 9.764 7.915 17.68 17.68 17.68 0.254 0 0.507-0.005 0.758-0.016l-0.036 0.001h146.269c0.215 0.009 0.468 0.015 0.722 0.015 9.764 0 17.68-7.915 17.68-17.68 0-0.254-0.005-0.507-0.016-0.758l0.001 0.036v-109.672c0.014-0.259 0.022-0.562 0.022-0.867 0-4.835-1.994-9.204-5.204-12.33l-0.004-0.004c-3.201-3.212-7.63-5.199-12.522-5.199-0.239 0-0.476 0.005-0.713 0.014l0.034-0.001zM384.471 740.479h-109.672v-786.269c0.008-0.202 0.013-0.44 0.013-0.679 0-4.892-1.987-9.321-5.199-12.522v0c-3.319-3.107-7.794-5.016-12.714-5.016-0.171 0-0.342 0.002-0.512 0.007l0.025-0.001h-109.672c-0.215-0.009-0.468-0.015-0.722-0.015-9.764 0-17.68 7.915-17.68 17.68 0 0.254 0.005 0.507 0.016 0.758l-0.001-0.036v786.092h-109.495c-0.066-0.001-0.145-0.001-0.223-0.001-10.155 0-18.387 8.232-18.387 18.387 0 5.089 2.068 9.696 5.409 13.025l182.69 182.69c3.514 3.101 8.118 5.042 13.171 5.185l0.029 0.001c0.007 0 0.016 0 0.025 0 5.097 0 9.733-1.973 13.187-5.196l-0.011 0.010 182.748-182.099c3.376-3.577 5.557-8.312 5.89-13.55l0.003-0.063c0.008-0.202 0.013-0.44 0.013-0.679 0-4.892-1.987-9.321-5.199-12.522v0c-3.291-3.222-7.802-5.211-12.777-5.211-0.336 0-0.669 0.009-1.001 0.027l0.046-0.002zM768.295 521.134h-255.941c-0.215-0.009-0.468-0.015-0.722-0.015-9.764 0-17.68 7.915-17.68 17.68 0 0.254 0.005 0.507 0.016 0.758l-0.001-0.036v109.672c-0.009 0.215-0.015 0.468-0.015 0.722 0 9.764 7.915 17.68 17.68 17.68 0.254 0 0.507-0.005 0.758-0.016l-0.036 0.001h255.941c0.215 0.009 0.468 0.015 0.722 0.015 9.764 0 17.68-7.915 17.68-17.68 0-0.254-0.005-0.507-0.016-0.758l0.001 0.036v-109.672c0.008-0.202 0.013-0.44 0.013-0.679 0-4.892-1.987-9.321-5.199-12.522v0c-3.13-3.214-7.499-5.208-12.333-5.208-0.305 0-0.608 0.008-0.909 0.024l0.042-0.002zM1000.84-58.814c-3.201-3.212-7.63-5.199-12.522-5.199-0.239 0-0.476 0.005-0.713 0.014l0.034-0.001h-475.285c-0.215-0.009-0.468-0.015-0.722-0.015-9.764 0-17.68 7.915-17.68 17.68 0 0.254 0.005 0.507 0.016 0.758l-0.001-0.036v109.672c-0.009 0.215-0.015 0.468-0.015 0.722 0 9.764 7.915 17.68 17.68 17.68 0.254 0 0.507-0.005 0.758-0.016l-0.036 0.001h475.285c0.215 0.009 0.468 0.015 0.722 0.015 9.764 0 17.68-7.915 17.68-17.68 0-0.254-0.005-0.507-0.016-0.758l0.001 0.036v-109.849c0.011-0.23 0.017-0.499 0.017-0.77 0-4.809-1.993-9.153-5.199-12.25l-0.005-0.005zM878.144 228.597h-365.79c-0.215-0.009-0.468-0.015-0.722-0.015-9.764 0-17.68 7.915-17.68 17.68 0 0.254 0.005 0.507 0.016 0.758l-0.001-0.036v109.672c-0.009 0.215-0.015 0.468-0.015 0.722 0 9.764 7.915 17.68 17.68 17.68 0.254 0 0.507-0.005 0.758-0.016l-0.036 0.001h365.378c0.215 0.009 0.468 0.015 0.722 0.015 9.764 0 17.68-7.915 17.68-17.68 0-0.254-0.005-0.507-0.016-0.758l0.001 0.036v-109.672c0.008-0.202 0.013-0.44 0.013-0.679 0-4.892-1.987-9.321-5.199-12.522v0c-3.101-3.205-7.441-5.195-12.246-5.195-0.191 0-0.381 0.003-0.57 0.009l0.028-0.001z" />
<glyph unicode="&#xe922;" glyph-name="add_to_user_group-icon" d="M989.006 231.046c-53.395 46.061-113.121 87.627-176.938 122.667l-5.379 2.706c-1.878 1.097-3.12 3.104-3.12 5.4 0 0.074 0.001 0.147 0.004 0.22v-0.011 64.913c8.226 14.54 14.092 31.537 16.568 49.613l0.083 0.741c7.302 0 15.627 11.175 25.021 47.015 13.357 50.354-1.024 57.077-12.511 55.964 2.134 6.017 3.948 13.186 5.116 20.571l0.093 0.71c20.836 128.757-38.556 133.209-38.556 133.209-8.244 15.207-20.411 27.374-35.161 35.39l-0.457 0.227c-17.676 10.855-39.083 17.285-61.991 17.285-3.85 0-7.658-0.182-11.415-0.537l0.48 0.037c-10.522-0.148-20.523-2.193-29.736-5.808l0.575 0.199c-12.327-4.771-22.982-10.769-32.612-18.050l0.334 0.242c-12.663-8.471-23.616-18.080-33.188-28.934l-0.158-0.183c-17.586-17.906-30.174-40.777-35.467-66.318l-0.15-0.865c-1.986-9.926-3.123-21.337-3.123-33.013s1.137-23.087 3.306-34.128l-0.182 1.115c1.441-7.841 3.245-14.616 5.512-21.176l-0.303 1.007c-11.442 1.113-26.045-5.61-12.511-55.964 9.394-36.953 18.744-47.015 25.021-48.128 3.534-19.348 9.725-36.625 18.269-52.444l-0.46 0.932v-64.913c0.002-0.063 0.004-0.136 0.004-0.21 0-2.296-1.242-4.303-3.091-5.384l-0.029-0.016-9.394-4.452c-1.864-0.793-3.146-2.609-3.146-4.724 0-1.176 0.396-2.259 1.063-3.123l-0.009 0.012c0-1.113 1.024-1.113 2.093-2.226 23.953-17.809 48.974-36.953 73.951-59.347 25.653-23.562 41.673-57.262 41.673-94.704 0-0.154 0-0.309-0.001-0.463v0.024-101.866h311.652v94.163c0.003 0.244 0.005 0.531 0.005 0.819 0 20.281-8.315 38.62-21.721 51.795l-0.010 0.010zM656.429 243.334c-57.963 50.254-122.798 95.538-192.117 133.677l-5.782 2.916c-1.878 1.097-3.12 3.104-3.12 5.4 0 0.074 0.001 0.147 0.004 0.22v-0.011 71.635c9.024 16.173 15.598 35.024 18.628 55.038l0.115 0.926c7.302 0 16.651 11.175 27.069 51.512 14.603 53.738-1.024 61.574-13.357 60.461 1.947 6.063 3.757 13.563 5.064 21.235l0.145 1.026c21.86 138.819-41.672 144.429-41.672 144.429-9.019 16.558-22.602 29.654-39.059 37.832l-0.521 0.234c-18.585 11.659-41.175 18.575-65.379 18.575-4.855 0-9.645-0.278-14.355-0.82l0.575 0.054c-11.377-0.69-21.993-3.097-31.874-6.967l0.709 0.245c-13.138-4.938-24.5-11.355-34.671-19.234l0.3 0.224c-13.42-9.253-25.098-19.517-35.462-30.991l-0.155-0.174c-18.919-19.853-32.51-44.944-38.383-72.878l-0.173-0.984c-2.483-10.764-3.905-23.125-3.905-35.818s1.423-25.053 4.118-36.931l-0.212 1.113c1.452-8.698 3.262-16.198 5.54-23.491l-0.331 1.23c-12.511 1.113-28.138-6.723-13.357-60.461 10.418-40.292 19.812-50.354 27.069-51.512 1.626-10.547 4.17-19.975 7.622-28.953l-0.321 0.949c110.077-26.017 190.731-123.438 190.731-239.697 0-2.32-0.032-4.632-0.096-6.937l0.007 0.34c0.006-0.678 0.010-1.48 0.010-2.283 0-55.205-17.14-106.407-46.389-148.574l0.566 0.863h316.149v100.619c0.004 0.274 0.006 0.598 0.006 0.922 0 21.669-9.106 41.211-23.7 55.008l-0.036 0.033zM175.594 434.777c-98.457-6.982-175.686-88.569-175.686-188.193s77.229-181.211 175.084-188.159l0.602-0.034c98.457 6.982 175.686 88.569 175.686 188.193s-77.229 181.211-175.084 188.159l-0.602 0.034zM291.35 237.768c0.015-0.255 0.023-0.554 0.023-0.854 0-8.574-6.808-15.558-15.313-15.841l-0.026-0.001h-81.119v-87.085c0.012-0.227 0.018-0.494 0.018-0.761 0-8.619-6.88-15.631-15.448-15.845h-11.596c-8.588 0.214-15.467 7.226-15.467 15.845 0 0.268 0.007 0.534 0.020 0.799l-0.001-0.037v87.085h-80.139c-8.588 0.214-15.467 7.226-15.467 15.845 0 0.268 0.007 0.534 0.020 0.799l-0.001-0.037v12.422c-0.012 0.227-0.018 0.494-0.018 0.761 0 8.619 6.88 15.631 15.448 15.845h81.050v87.174c-0.012 0.227-0.018 0.494-0.018 0.761 0 8.619 6.88 15.631 15.448 15.845h11.596c8.588-0.214 15.467-7.226 15.467-15.845 0-0.268-0.007-0.534-0.020-0.799l0.001 0.037v-87.085h81.119c8.588-0.214 15.467-7.226 15.467-15.845 0-0.268-0.007-0.534-0.020-0.799l0.001 0.037v-12.422z" />
<glyph unicode="&#xe923;" glyph-name="icon-link" d="M665.324 333.336c2.177-1.901 5.044-3.060 8.182-3.060s6.005 1.159 8.196 3.073l-0.015-0.013 339.196 338.956c1.901 2.177 3.060 5.044 3.060 8.182s-1.159 6.005-3.073 8.196l0.013-0.015-268.288 268.288c-2.177 1.901-5.044 3.060-8.182 3.060s-6.005-1.159-8.196-3.073l0.015 0.013-338.956-338.956c-1.901-2.177-3.060-5.044-3.060-8.182s1.159-6.005 3.073-8.196l-0.013 0.015 93.205-93.205-38.9-38.9-93.205 93.205c-2.177 1.901-5.044 3.060-8.182 3.060s-6.005-1.159-8.196-3.073l0.015 0.013-338.956-338.956c-1.901-2.177-3.060-5.044-3.060-8.182s1.159-6.005 3.073-8.196l-0.013 0.015 268.288-268.288c2.177-1.901 5.044-3.060 8.182-3.060s6.005 1.159 8.196 3.073l-0.015-0.013 338.896 338.956c1.901 2.177 3.060 5.044 3.060 8.182s-1.159 6.005-3.073 8.196l0.013-0.015-93.145 93.205 38.9 38.9zM474.898 286.224l-194.323-194.502-124.733 123.894 194.323 194.502 20.499-20.499-67.551-67.551c-2.388-2.724-3.845-6.317-3.845-10.25s1.457-7.525 3.86-10.267l-0.015 0.018 62.517-62.397c2.724-2.388 6.317-3.845 10.25-3.845s7.525 1.457 10.267 3.86l-0.018-0.015 67.491 67.491zM548.623 609.896l194.622 194.263 123.894-123.894-194.383-194.323-20.499 20.499 67.551 67.551c2.388 2.724 3.845 6.317 3.845 10.25s-1.457 7.525-3.86 10.267l0.015-0.018-62.457 62.397c-2.724 2.388-6.317 3.845-10.25 3.845s-7.525-1.457-10.267-3.86l0.018 0.015-67.432-67.551z" />
<glyph unicode="&#xe924;" glyph-name="ic_remove_circle" d="M512 21.333c-235.641 0-426.667 191.025-426.667 426.667s191.025 426.667 426.667 426.667c235.641 0 426.667-191.025 426.667-426.667v0c-0.291-235.524-191.142-426.375-426.638-426.667h-0.028zM298.667 490.667v-85.333h426.667v85.333z" />
<glyph unicode="&#xe925;" glyph-name="mute-microphone" d="M505.837 242.719h12.334c116.44 0 218.58 94.496 218.58 202.225v248.181l182.844 182.844c15.146 15.146 15.146 39.704 0 54.854-15.149 15.146-39.7 15.146-54.854 0l-132.772-132.776c-21.429 89.95-112.158 161.954-213.798 161.954h-12.334c-116.44 0-218.58-94.496-218.58-202.217v-312.839c0-26.106 6.043-51.421 16.79-74.816l-39.522-39.526c-18.109 33.917-27.879 71.12-27.879 108.656 0 16.065-13.020 29.089-29.089 29.089s-29.089-13.024-29.089-29.089c0-52.922 15.312-105.107 43.435-151.273l-117.499-117.499c-15.146-15.146-15.146-39.704 0-54.854 7.575-7.575 17.5-11.36 27.425-11.36 9.929 0 19.85 3.785 27.425 11.36l111.165 111.165c4.274-4.216 8.668-8.347 13.206-12.361 55.521-49.109 127.083-79.172 199.285-84.446v-135.813h-120.986c-16.069 0-29.089-13.024-29.089-29.089s13.020-29.089 29.089-29.089h328.38c16.069 0 29.089 13.024 29.089 29.089s-13.020 29.089-29.089 29.089h-149.213v135.813c72.206 5.279 143.764 35.341 199.285 84.446 66.83 59.112 105.161 141.057 105.161 224.821 0 16.065-13.020 29.089-29.089 29.089s-29.089-13.024-29.089-29.089c0-67.106-31.171-133.168-85.529-181.242-50.847-44.975-117.708-70.771-183.441-70.771h-12.78c-65.729 0-132.59 25.796-183.441 70.771-3.646 3.223-7.171 6.547-10.604 9.929l38.354 38.358c40.344-38.715 96.229-63.584 155.915-63.584zM678.574 444.944c0-75.39-76.457-144.047-160.403-144.047h-12.334c-43.439 0-84.842 18.411-114.714 46.6l287.451 287.451v-190.004zM345.434 444.944v312.839c0 75.386 76.457 144.040 160.403 144.040h12.334c83.95 0 160.403-68.653 160.403-144.040v-13.129l-329.222-329.222c-2.537 9.623-3.917 19.505-3.917 29.511z" />
<glyph unicode="&#xe926;" glyph-name="call" d="M873.984 810.094c-199.978 199.918-524.16 199.87-724.078-0.11s-199.87-524.16 0.11-724.078 524.16-199.87 724.078 0.11c96.012 96.042 149.936 226.292 149.906 362.094-0.028 135.78-53.99 265.988-150.016 361.984zM775.406 246.79c-0.022-0.022-0.044-0.046-0.068-0.068v0.17l-25.942-25.77c-33.55-33.974-82.412-47.952-128.854-36.864-46.79 12.524-91.27 32.46-131.754 59.050-37.612 24.038-72.468 52.138-103.936 83.798-28.954 28.742-54.966 60.302-77.654 94.208-24.816 36.484-44.458 76.228-58.368 118.102-15.946 49.192-2.732 103.17 34.134 139.434l30.378 30.378c8.446 8.484 22.17 8.514 30.652 0.068 0.022-0.022 0.046-0.044 0.068-0.068l95.914-95.914c8.484-8.446 8.514-22.17 0.068-30.652-0.022-0.022-0.044-0.044-0.068-0.068l-56.32-56.32c-16.16-15.984-18.192-41.384-4.778-59.734 20.37-27.956 42.912-54.262 67.414-78.678 27.318-27.436 57.016-52.394 88.746-74.582 18.334-12.788 43.19-10.632 59.050 5.12l54.442 55.296c8.446 8.484 22.17 8.514 30.652 0.068 0.022-0.022 0.044-0.044 0.068-0.068l96.086-96.256c8.486-8.444 8.516-22.166 0.070-30.65z" />
<glyph unicode="&#xe927;" glyph-name="icon-surveys" d="M378.58 761.589v29.070c0.025 6.367 5.18 11.522 11.545 11.547h18.244c19.974 0.358 37.061 12.35 44.802 29.473l0.128 0.315c7.151 16.129 23.020 27.177 41.47 27.183h0.001c18.464-0.166 34.325-11.14 41.577-26.896l0.118-0.287c7.67-17.598 24.876-29.696 44.918-29.789h18.254c6.367-0.025 11.522-5.18 11.547-11.545v-29.072c-0.025-6.367-5.18-11.522-11.545-11.547h-209.511c-6.367 0.025-11.522 5.18-11.547 11.545v0.002zM248.508 220.811h53.602v53.646h-53.602zM248.508 543.723h53.602v53.646h-53.602zM854.299 685.612v-531.118c-0.127-41.091-33.403-74.367-74.482-74.494h-569.68c-41.091 0.127-74.367 33.403-74.494 74.482v531.13c0 0 0 0 0 0 0 41.187 33.325 74.591 74.482 74.718h131.208c0.775-26.377 22.31-47.472 48.788-47.536h209.694c26.484 0.064 48.019 21.159 48.792 47.465l0.002 0.071h131.196c0.013 0 0.029 0 0.045 0 41.117 0 74.449-33.332 74.449-74.449 0-0.095 0-0.189-0.001-0.284v0.015zM413.716 570.906c-0.001-0.053-0.001-0.117-0.001-0.18 0-10.174 8.247-18.421 18.421-18.421 0.016 0 0.032 0 0.048 0h302.781c10.285 0 18.623 8.338 18.623 18.623s-8.338 18.623-18.623 18.623h-302.783c-10.21-0.127-18.442-8.421-18.466-18.644v-0.002zM413.716 407.765c-0.001-0.054-0.001-0.117-0.001-0.181 0-10.174 8.247-18.421 18.421-18.421 0.064 0 0.127 0 0.19 0.001h284.127c10.285 0 18.623 8.338 18.623 18.623s-8.338 18.623-18.623 18.623h-284.272c-10.16-0.248-18.32-8.47-18.466-18.632v-0.014zM339.356 293.059c0.001 0.054 0.001 0.117 0.001 0.181 0 10.174-8.247 18.421-18.421 18.421-0.064 0-0.127 0-0.19-0.001h-90.749c-0.054 0.001-0.117 0.001-0.181 0.001-10.174 0-18.421-8.247-18.421-18.421 0-0.064 0-0.127 0.001-0.19v0.010-90.893c-0.001-0.054-0.001-0.117-0.001-0.181 0-10.174 8.247-18.421 18.421-18.421 0.064 0 0.127 0 0.19 0.001h90.749c0.054-0.001 0.117-0.001 0.181-0.001 10.174 0 18.421 8.247 18.421 18.421 0 0.064 0 0.127-0.001 0.19v-0.010 90.893zM339.356 454.807c0.001 0.054 0.001 0.117 0.001 0.181 0 10.174-8.247 18.421-18.421 18.421-0.064 0-0.127 0-0.19-0.001h-90.749c-0.094 0.002-0.205 0.003-0.315 0.003-10.174 0-18.421-8.247-18.421-18.421 0-0.064 0-0.128 0.001-0.192v0.010-90.893c-0.001-0.054-0.001-0.117-0.001-0.181 0-10.174 8.247-18.421 18.421-18.421 0.064 0 0.127 0 0.19 0.001h90.883c0.054-0.001 0.117-0.001 0.181-0.001 10.174 0 18.421 8.247 18.421 18.421 0 0.064 0 0.127-0.001 0.19v-0.010 90.893zM339.356 616.061c0 0.014 0 0.030 0 0.046 0 10.174-8.247 18.421-18.421 18.421-0.063 0-0.126 0-0.189-0.001h-90.749c-0.054 0.001-0.117 0.001-0.181 0.001-10.174 0-18.421-8.247-18.421-18.421 0-0.064 0-0.127 0.001-0.19v0.010-90.848c-0.001-0.054-0.001-0.117-0.001-0.181 0-10.174 8.247-18.421 18.421-18.421 0.064 0 0.127 0 0.19 0.001h90.749c0.054-0.001 0.117-0.001 0.181-0.001 10.174 0 18.421 8.247 18.421 18.421 0 0.064 0 0.127-0.001 0.19v-0.010 90.893zM763.406 244.355c0.001 0.054 0.001 0.117 0.001 0.181 0 10.174-8.247 18.421-18.421 18.421-0.064 0-0.127 0-0.19-0.001h-312.613c-10.285 0-18.623-8.338-18.623-18.623s8.338-18.623 18.623-18.623h312.084c0.107-0.002 0.234-0.003 0.361-0.003 10.295 0 18.655 8.283 18.779 18.548v0.012zM248.508 382.47h53.602v53.602h-53.602z" />
<glyph unicode="&#xe928;" glyph-name="icon-referral-earning" d="M111.36 280.277h280.192l-140.075 131.627zM425.515 72.277s-116.181 16.043-167.168 70.059c-31.503 37.746-52.993 84.87-59.8 136.619l-0.147 1.365h112.512c-0.048-2.051-0.075-4.468-0.075-6.891 0-47.846 10.594-93.217 29.564-133.897l-0.817 1.951c20.928-31.010 50.239-54.934 84.689-68.765l1.242-0.44zM826.709 552.021c0-109.031-88.387-197.419-197.419-197.419s-197.419 88.387-197.419 197.419c0 109.031 88.387 197.419 197.419 197.419v0c109.031 0 197.419-88.387 197.419-197.419v0zM629.291 316.587c-33.491 0.009-65.359 6.945-94.254 19.452l1.539-0.593c-31.713 13.586-58.679 32.552-80.97 56.004l-0.097 0.103c-25.492-16.237-47.506-34.766-66.809-55.821l-0.22-0.243c-2.731-2.987-5.461-5.931-8.107-9.003l70.869-66.56h-113.28s0-143.061 109.824-187.733h505.557c1.812 12.912 2.847 27.829 2.847 42.987 0 115.983-60.581 217.816-151.826 275.583l-1.335 0.79c-43.653-46.192-105.336-74.95-173.736-74.965h-0.003zM361.813 864.043c-0.202 0.001-0.442 0.002-0.681 0.002-85.114 0-154.112-68.998-154.112-154.112s68.998-154.112 154.112-154.112c10.292 0 20.349 1.009 30.077 2.933l-0.979-0.161c1.028 85.813 47.137 160.631 115.705 201.981l1.074 0.601c-21.721 60.405-78.499 102.83-145.19 102.869h-0.005zM438.272 412.459c-24.682 32.35-41.373 72.040-46.443 115.282l-0.106 1.113c-8.93-1.601-19.255-2.56-29.788-2.645h-0.078c-0.043 0-0.093 0-0.143 0-53.381 0-101.52 22.443-135.496 58.407l-0.083 0.089c-72.217-45.718-119.468-125.181-119.468-215.68 0-11.826 0.807-23.463 2.368-34.859l-0.148 1.323h29.312l116.267 109.227 105.643-99.2 4.267 4.736c21.613 23.505 45.868 44.045 72.442 61.32l1.457 0.888z" />
<glyph unicode="&#xe929;" glyph-name="icon-referral-programs" d="M900.395 289.92v0c17.898 42.209 28.3 91.295 28.3 142.811 0 1.063-0.004 2.125-0.013 3.185l0.001-0.162c0 0.084 0 0.184 0 0.283 0 60.138-12.558 117.344-35.194 169.137l1.060-2.722c-5.986-3.605-12.897-6.645-20.2-8.763l-0.621-0.154c20.689-46.745 32.734-101.263 32.734-158.594 0-48.81-8.73-95.581-24.715-138.836l0.898 2.775c6.808-1.908 12.735-4.987 17.854-9.040l-0.105 0.080zM424.149 48.853c-72.139 15.824-134.705 49.802-184.776 96.912l0.2-0.186c-5.591-4.172-11.919-8.126-18.566-11.548l-0.762-0.356c54.749-53.327 124.724-91.275 202.791-106.713l2.564-0.423c-0.966 5.54-1.518 11.92-1.518 18.428 0 1.367 0.024 2.728 0.073 4.083l-0.006-0.196zM253.013 739.371c48.789 41.756 108.641 72.020 174.536 85.862l2.573 0.452c-2.7 6.564-4.267 14.185-4.267 22.171 0 0.051 0 0.101 0 0.152v-0.008c-72.704-15.072-136.205-47.469-188.235-92.715l0.501 0.427c5.26-5.045 10.133-10.377 14.639-16.016l0.252-0.326zM787.285 749.781c-49.437 45.629-110.899 78.958-179.086 94.712l-2.674 0.52v-4.267l-4.267-17.877c66.965-16.158 125.132-47.255 173.052-89.669l-0.423 0.367c3.281 6.491 7.8 11.91 13.288 16.132l0.109 0.081zM138.411 295.851c-16.371 41.865-25.858 90.337-25.858 141.024 0 58.894 12.809 114.797 35.792 165.074l-1.017-2.482-17.707 8.917-1.621 1.493c-23.603-50.619-37.374-109.895-37.374-172.387 0-55.856 11.002-109.143 30.956-157.811l-1.007 2.774c4.921 5.517 10.844 10.021 17.5 13.251l0.335 0.146zM784.299 150.016c-48.079-47.186-108.475-81.987-175.918-99.133l-2.685-0.579v-22.315c77.63 18.881 144.609 56.864 198.036 108.731l-0.105-0.101c-7.368 3.826-13.718 8.283-19.399 13.461l0.071-0.064zM514.944 468.523c26.298 0 47.616 21.318 47.616 47.616s-21.318 47.616-47.616 47.616v0c-26.298 0-47.616-21.318-47.616-47.616s21.318-47.616 47.616-47.616v0zM514.944 407.509c-49.518-0.27-92.077-29.788-111.303-72.146l-0.313-0.771h223.232c-19.539 43.129-62.098 72.648-111.581 72.917h-0.035zM721.707 330.112c20.23 34.356 32.18 75.686 32.18 119.808 0 132.059-107.055 239.114-239.114 239.114-87.937 0-164.787-47.47-206.323-118.182l-0.61-1.123c-20.12-34.285-32.003-75.51-32.003-119.51 0-131.973 106.901-238.978 238.835-239.146h0.016c0.9-0.012 1.964-0.020 3.028-0.020 87.037 0 162.989 47.462 203.386 117.916l0.604 1.143zM514.859 587.563c0.025 0 0.055 0 0.085 0 38.622 0 69.931-31.309 69.931-69.931s-31.309-69.931-69.931-69.931c-38.607 0-69.906 31.285-69.931 69.886v0.002c0 0.051 0 0.111 0 0.171 0 38.575 31.271 69.845 69.845 69.845 0.030 0 0.060 0 0.090 0h-0.005zM642.859 310.741h-256c-0.033 0-0.072-0.001-0.11-0.001-6.080 0-11.008 4.928-11.008 11.008 0 1.395 0.26 2.73 0.733 3.958l-0.026-0.075c17.886 60.648 73.067 104.158 138.411 104.158s120.525-43.51 138.152-103.139l0.258-1.019c0.29-0.968 0.457-2.081 0.457-3.232 0-6.129-4.733-11.152-10.743-11.613l-0.040-0.002zM504.491 788.48v-78.891h22.315v78.891c32.603 5.547 57.114 33.586 57.114 67.35 0 3.016-0.196 5.986-0.575 8.898l0.037-0.343c-3.449 34.296-32.092 60.866-66.972 61.013h-1.508c-0.229 0.003-0.5 0.004-0.771 0.004-35.064 0-63.915-26.602-67.471-60.725l-0.025-0.292c-0.327-2.51-0.514-5.412-0.514-8.359 0-34.211 25.164-62.544 57.993-67.499l0.377-0.047zM141.397 626.475c11.028-7.973 24.821-12.752 39.73-12.752 19.485 0 37.063 8.163 49.501 21.256l0.028 0.029 64-44.629c4.277 6.729 8.69 12.567 13.524 18.024l-0.127-0.146-64 44.629c4.292 8.755 6.802 19.054 6.802 29.939 0 23.256-11.457 43.836-29.035 56.404l-0.21 0.143c-11.158 7.724-24.98 12.339-39.879 12.339-23.232 0-43.843-11.219-56.712-28.534l-0.134-0.189c-7.955-11.125-12.719-25.005-12.719-39.997 0-23.244 11.452-43.812 29.021-56.372l0.21-0.143zM787.285 653.056l-64-44.629c4.509-5.287 8.915-11.116 12.971-17.199l0.426-0.679 64 44.629c12.717-12.961 30.416-20.994 49.991-20.994 14.675 0 28.296 4.515 39.549 12.231l-0.239-0.154c17.757 12.732 29.19 33.308 29.19 56.555 0 38.318-31.063 69.382-69.382 69.382-15.072 0-29.022-4.806-40.4-12.969l0.208 0.142c-17.88-12.432-29.438-32.873-29.438-56.014 0-11.042 2.631-21.469 7.301-30.689l-0.178 0.388zM242.603 245.291l64 44.629-13.397 17.877-64-44.629c-12.717 12.961-30.416 20.994-49.991 20.994-14.675 0-28.296-4.515-39.549-12.231l0.239 0.154c-17.756-12.607-29.202-33.092-29.202-56.251 0-37.985 30.793-68.779 68.779-68.779 15.36 0 29.544 5.035 40.991 13.545l-0.184-0.131c17.912 11.918 29.556 32.022 29.556 54.845 0 10.945-2.678 21.264-7.414 30.339l0.172-0.363zM526.848 109.824v78.891h-22.357v-78.891c-32.899-5.942-57.596-34.157-58.026-68.221v-0.046c0.611-37.233 30.937-67.181 68.258-67.181 37.703 0 68.267 30.564 68.267 68.267 0 33.416-24.010 61.225-55.719 67.116l-0.421 0.065zM888.491 272.085c-10.994 7.831-24.699 12.521-39.499 12.521-19.599 0-37.277-8.223-49.773-21.407l-0.029-0.031-64 44.629-13.397-17.877 64-44.629c-4.274-8.74-6.773-19.018-6.773-29.879 0-23.188 11.391-43.716 28.882-56.294l0.206-0.141c11.17-8.021 25.12-12.827 40.192-12.827 38.318 0 69.382 31.063 69.382 69.382 0 23.246-11.432 43.822-28.982 56.413l-0.208 0.142z" />
<glyph unicode="&#xe933;" glyph-name="republish" d="M0 372.755c0-137.176 53.42-266.221 150.417-363.141l90.785 90.775c-72.728 72.732-112.795 169.41-112.795 272.367 0 102.953 40.067 199.638 112.795 272.367 149.661 149.602 392.69 149.977 543.039 1.505l-145.456-145.461h385.215v385.221l-148.905-148.852c-200.443 198.637-525.109 198.012-724.678-1.63-96.997-96.925-150.417-225.963-150.417-363.15z" />
</font>
</defs>
</svg>
